<svg xmlns="http://www.w3.org/2000/svg" width="1200" height="620" viewBox="0 0 1200 620">
<rect width="1200" height="620" fill="#101827"/><style>text{font-family:Arial,"PingFang SC",sans-serif;fill:#e5eefb}.box{fill:#1f3150;stroke:#61dafb;stroke-width:2;rx:14}.exp{fill:#164b43;stroke:#63e6be;stroke-width:2;rx:14}.line{stroke:#b9c8dc;stroke-width:3;fill:none}</style>
<text x="55" y="55" font-size="30" font-weight="bold">MoE：Router 为每个 token 选择 Expert</text>
<rect class="box" x="60" y="230" width="180" height="90"/><text x="120" y="285" font-size="24">token x</text>
<rect class="box" x="330" y="230" width="220" height="90"/><text x="392" y="285" font-size="24">Gate + Softmax</text>
<rect class="exp" x="720" y="90" width="190" height="75"/><text x="777" y="136" font-size="22">Expert 0</text>
<rect class="exp" x="720" y="205" width="190" height="75"/><text x="777" y="251" font-size="22">Expert 1</text>
<rect class="exp" x="720" y="320" width="190" height="75"/><text x="777" y="366" font-size="22">Expert 2</text>
<rect class="exp" x="720" y="435" width="190" height="75"/><text x="777" y="481" font-size="22">Expert 3</text>
<rect class="box" x="1010" y="230" width="130" height="90"/><text x="1050" y="285" font-size="24">输出 y</text>
<path class="line" d="M240 275H330M550 275C630 275 630 128 720 128M550 275C630 275 630 243 720 243M550 275C630 275 630 358 720 358M550 275C630 275 630 473 720 473M910 128C965 128 965 275 1010 275M910 243C965 243 965 275 1010 275M910 358C965 358 965 275 1010 275M910 473C965 473 965 275 1010 275"/>
<text x="325" y="390" font-size="21" fill="#9fb3cc">Top-K：只激活少数专家，再按路由权重聚合</text>
</svg>
